<svg xmlns="http://www.w3.org/2000/svg" height="50px" width="50px" viewBox="0 0 1066.667 1066.667" xml:space="preserve"><path d="M3103.99 999.691C4609.39-131.949 6161.94 440.809 6571.72 2279l749.9 3363.81c337.68 1514.75-568.91 2307.27-2024.9 1770.12L2625.06 6427.3C127.59 5505.94-172.051 3462.32 1955.82 1862.78l1148.17-863.089" transform="matrix(.13333 0 0 -.13333 0 1066.667)" style="fill: rgb(0, 91, 234); fill-opacity: 1; fill-rule: nonzero; stroke: none;"></path><path d="M4469.7 4348.09s-426.95 49.55-725.45-47.78c-298.5-97.28-461.37-458.01-492.79-616.01-31.42-158.03 14.47-511 283.69-522.76 269.21-11.75 849.01 350.71 875.62 398.58 26.61 47.87 231.48 570.43 142.94 692.61-71.6 98.79-84.01 95.36-84.01 95.36" transform="matrix(.13333 0 0 -.13333 0 1066.667)" style="fill: rgb(0, 91, 234); fill-opacity: 1; fill-rule: nonzero; stroke: none;"></path><path d="M3525.26 2231.74c636.72-538.57 1296.59-314.58 1473.87 500.31l327.01 1503.11c132.66 609.82-238.86 941.55-829.82 740.95l-1096.58-372.24c-1055.8-358.4-1221.6-1232.66-370.32-1952.72l495.84-419.41" transform="matrix(.13333 0 0 -.13333 0 1066.667)" style="fill: rgb(255, 255, 255); fill-opacity: 1; fill-rule: nonzero; stroke: none;"></path><path d="M3775.19 2908.97c290.95-246.1 592.48-143.75 673.49 228.62l152.28 699.98c59.88 275.23-107.8 424.95-374.52 334.41l-510.78-173.39c-484.24-164.37-560.28-565.36-169.84-895.61l229.37-194.01" transform="matrix(.13333 0 0 -.13333 0 1066.667)" style="fill: rgb(0, 91, 234); fill-opacity: 1; fill-rule: nonzero; stroke: none;"></path><path d="M5306.29 5253.35c270.02-11.79 525.74 187.49 536.51 434.3 9.18 210.05-171.79 375.79-406.59 386.04-275.9 12.05-525.74-187.5-536.75-439.55-8.94-204.8 166.15-370.28 406.83-380.79" transform="matrix(.13333 0 0 -.13333 0 1066.667)" style="fill: rgb(255, 255, 255); fill-opacity: 1; fill-rule: nonzero; stroke: none;"></path></svg>